<?xml version="1.0" encoding="UTF-8"?>
<svg id="Layer_1" xmlns="http://www.w3.org/2000/svg" version="1.1" viewBox="0 0 141.73 21.7">
  <!-- Generator: Adobe Illustrator 30.4.0, SVG Export Plug-In . SVG Version: 2.1.4 Build 226)  -->
  <path d="M130.88,0c-5.99,0-10.85,4.86-10.85,10.85h21.7C141.73,4.86,136.87,0,130.88,0c0,0,0,0,0,0Z" fill="#ffda00"/>
  <path d="M130.88,21.7c-5.99,0-10.85-4.86-10.85-10.85h21.7c0,5.99-4.86,10.85-10.85,10.85Z" fill="#2071b5"/>
  <g>
    <path d="M33.25,4.99h-10.07v2.65h3.59v9.73h3.24V7.64h3.24v-2.65Z" fill="#4e4b48"/>
    <path d="M34.38,4.99v2.65h3.24v9.73h3.24V7.64h3.59v-2.65h-10.07Z" fill="#4e4b48"/>
    <path d="M69.14,17.37V4.99h-3.1v7.41l-5.52-7.41h-3.1v12.38h3.1v-7.32l5.52,7.32h3.1Z" fill="#4e4b48"/>
    <path d="M46.03,17.37h9.16v-2.65h-5.91v-2.44h5.01v-2.65h-5.01v-1.99h5.91v-2.65h-9.16v12.38Z" fill="#4e4b48"/>
    <path d="M71.61,17.37h3.24v-5.01h5.24v-2.65h-5.24v-2.06h6.21v-2.65h-9.45v12.38Z" fill="#4e4b48"/>
    <path d="M10.22,4.99l-3.53,8.71h-.03L3.14,4.99H0l5.08,12.38h3.19l5.08-12.38h-3.14Z" fill="#4e4b48"/>
    <path d="M104.88,17.37h8.95v-2.75h-5.71V4.99h-3.24v12.38Z" fill="#4e4b48"/>
    <path d="M94.53,17.37h8.96v-2.75h-5.71V4.99h-3.24v12.38Z" fill="#4e4b48"/>
    <path d="M90.34,17.37h3.14l-5.16-12.38h-3.18l-5.16,12.38h3.14l.89-2.21h5.45l.89,2.21ZM85.02,12.64l1.69-4.23h.02l1.7,4.23h-3.42Z" fill="#4e4b48"/>
    <path d="M21.63,17.37h3.14l-5.16-12.38h-3.18l-5.16,12.38h3.14l.89-2.21h5.45l.89,2.21ZM16.31,12.64l1.69-4.23h.02l1.7,4.23h-3.42Z" fill="#4e4b48"/>
  </g>
</svg>
